<?xml version="1.0" encoding="UTF-8" standalone="no"?>
<!DOCTYPE svg PUBLIC "-//W3C//DTD SVG 1.1//EN" "http://www.w3.org/Graphics/SVG/1.1/DTD/svg11.dtd">
<svg xmlns="http://www.w3.org/2000/svg" xmlns:xl="http://www.w3.org/1999/xlink" xmlns:dc="http://purl.org/dc/elements/1.1/" version="1.1" viewBox="-801 259 1089 611" width="1089" height="611">
  <defs>
    <marker orient="auto" overflow="visible" markerUnits="strokeWidth" id="FilledArrow_Marker" stroke-linejoin="miter" stroke-miterlimit="10" viewBox="-1 -3 7 6" markerWidth="7" markerHeight="6" color="black">
      <g>
        <path d="M 4.8 0 L 0 -1.8 L 0 1.8 Z" fill="currentColor" stroke="currentColor" stroke-width="1"/>
      </g>
    </marker>
  </defs>
  <g id="HDR_APIs" stroke-opacity="1" stroke-dasharray="none" fill-opacity="1" stroke="none" fill="none">
    <title>HDR APIs</title>
    <rect fill="white" x="-801" y="259" width="1089" height="611"/>
    <g id="HDR_APIs_Layer_1">
      <title>Layer 1</title>
      <g id="Graphic_282">
        <rect x="-52" y="436" width="108" height="84" fill="white"/>
        <rect x="-52" y="436" width="108" height="84" stroke="gray" stroke-linecap="round" stroke-linejoin="round" stroke-width="1"/>
        <text transform="translate(-47 450.328)" fill="black">
          <tspan font-family="Helvetica Neue" font-size="16" fill="black" x="22.184" y="15" xml:space="preserve">Canvas</tspan>
          <tspan font-family="Helvetica Neue" font-size="16" fill="black" x="24.24" y="33.448" xml:space="preserve">Output </tspan>
          <tspan font-family="Helvetica Neue" font-size="16" fill="black" x="23.36" y="51.895996" xml:space="preserve">Bitmap</tspan>
        </text>
      </g>
      <g id="Graphic_295">
        <rect x="-512" y="344" width="176" height="76" fill="white"/>
        <rect x="-512" y="344" width="176" height="76" stroke="gray" stroke-linecap="round" stroke-linejoin="round" stroke-width="1"/>
        <text transform="translate(-507 353.776)" fill="black">
          <tspan font-family="Helvetica Neue" font-size="16" fill="black" x="43.88" y="15" xml:space="preserve">Canvas 2D</tspan>
          <tspan font-family="Menlo" font-size="16" fill="black" x="39.652344" y="52.448" xml:space="preserve">drawImage</tspan>
        </text>
      </g>
      <g id="Graphic_298">
        <rect x="-164" y="436" width="84" height="84" fill="white"/>
        <rect x="-164" y="436" width="84" height="84" stroke="gray" stroke-linecap="round" stroke-linejoin="round" stroke-width="1"/>
        <text transform="translate(-159 450.328)" fill="black">
          <tspan font-family="Helvetica Neue" font-size="16" fill="black" x="10.488" y="15" xml:space="preserve">WebGL</tspan>
          <tspan font-family="Helvetica Neue" font-size="16" fill="black" x="8.4" y="33.448" xml:space="preserve">sampler </tspan>
          <tspan font-family="Helvetica Neue" font-size="16" fill="black" x="4.104" y="51.895996" xml:space="preserve">in shader</tspan>
        </text>
      </g>
      <g id="Graphic_299">
        <rect x="-166" y="536" width="84" height="84" fill="white"/>
        <rect x="-166" y="536" width="84" height="84" stroke="gray" stroke-linecap="round" stroke-linejoin="round" stroke-width="1"/>
        <text transform="translate(-161 550.328)" fill="black">
          <tspan font-family="Helvetica Neue" font-size="16" fill="black" x="3.976" y="15" xml:space="preserve">WebGPU</tspan>
          <tspan font-family="Helvetica Neue" font-size="16" fill="black" x="8.4" y="33.448" xml:space="preserve">sampler </tspan>
          <tspan font-family="Helvetica Neue" font-size="16" fill="black" x="4.104" y="51.895996" xml:space="preserve">in shader</tspan>
        </text>
      </g>
      <g id="Graphic_300">
        <rect x="-512" y="436" width="176" height="84" fill="white"/>
        <rect x="-512" y="436" width="176" height="84" stroke="gray" stroke-linecap="round" stroke-linejoin="round" stroke-width="1"/>
        <text transform="translate(-507 440.776)" fill="black">
          <tspan font-family="Helvetica Neue" font-size="16" fill="black" x="56.488" y="15" xml:space="preserve">WebGL</tspan>
          <tspan font-family="Menlo" font-size="16" fill="black" x="20.386719" y="51.448" xml:space="preserve">tex[Sub]Image</tspan>
          <tspan font-family="Menlo" font-size="16" fill="black" x="49.285156" y="70.448" xml:space="preserve">[2D,3D]</tspan>
        </text>
      </g>
      <g id="Graphic_301">
        <rect x="-512" y="536" width="176" height="84" fill="white"/>
        <rect x="-512" y="536" width="176" height="84" stroke="gray" stroke-linecap="round" stroke-linejoin="round" stroke-width="1"/>
        <text transform="translate(-507 540.776)" fill="black">
          <tspan font-family="Helvetica Neue" font-size="16" fill="black" x="49.976" y="15" xml:space="preserve">WebGPU</tspan>
          <tspan font-family="Menlo" font-size="16" fill="black" x="1.1210938" y="51.448" xml:space="preserve">copyExternalImage</tspan>
          <tspan font-family="Menlo" font-size="16" fill="black" x="39.652344" y="70.448" xml:space="preserve">ToTexture</tspan>
        </text>
      </g>
      <g id="Graphic_303">
        <rect x="-276" y="436" width="84" height="84" fill="white"/>
        <rect x="-276" y="436" width="84" height="84" stroke="gray" stroke-linecap="round" stroke-linejoin="round" stroke-width="1"/>
        <text transform="translate(-271 459.552)" fill="black">
          <tspan font-family="Helvetica Neue" font-size="16" fill="black" x="10.488" y="15" xml:space="preserve">WebGL</tspan>
          <tspan font-family="Helvetica Neue" font-size="16" fill="black" x="12.256" y="33.448" xml:space="preserve">texture</tspan>
        </text>
      </g>
      <g id="Graphic_304">
        <rect x="-276" y="536" width="84" height="84" fill="white"/>
        <rect x="-276" y="536" width="84" height="84" stroke="gray" stroke-linecap="round" stroke-linejoin="round" stroke-width="1"/>
        <text transform="translate(-271 559.552)" fill="black">
          <tspan font-family="Helvetica Neue" font-size="16" fill="black" x="3.976" y="15" xml:space="preserve">WebGPU</tspan>
          <tspan font-family="Helvetica Neue" font-size="16" fill="black" x="12.256" y="33.448" xml:space="preserve">texture</tspan>
        </text>
      </g>
      <g id="Graphic_305">
        <rect x="-512" y="636" width="176" height="84" fill="white"/>
        <rect x="-512" y="636" width="176" height="84" stroke="gray" stroke-linecap="round" stroke-linejoin="round" stroke-width="1"/>
        <text transform="translate(-507 640.776)" fill="black">
          <tspan font-family="Helvetica Neue" font-size="16" fill="black" x="49.976" y="15" xml:space="preserve">WebGPU</tspan>
          <tspan font-family="Menlo" font-size="16" fill="black" x="15.570312" y="51.448" xml:space="preserve">importExternal</tspan>
          <tspan font-family="Menlo" font-size="16" fill="black" x="49.285156" y="70.448" xml:space="preserve">Texture</tspan>
        </text>
      </g>
      <g id="Graphic_306">
        <rect x="-800" y="288" width="256" height="364" fill="white"/>
        <rect x="-800" y="288" width="256" height="364" stroke="gray" stroke-linecap="round" stroke-linejoin="round" stroke-width="1"/>
        <text transform="translate(-790 333.76395)" fill="black">
          <tspan font-family="Helvetica Neue" font-weight="bold" font-size="16" fill="black" x="25.264" y="16" xml:space="preserve">Potentially HDR Content</tspan>
          <tspan font-family="Menlo" font-size="16" fill="black" x="0" y="52.46411" xml:space="preserve">color-hdr</tspan>
          <tspan font-family="Helvetica Neue" font-size="16" fill="black" y="52.46411" xml:space="preserve"> CSS color</tspan>
          <tspan font-family="Menlo" font-size="16" fill="black" x="0" y="71.46411" xml:space="preserve">HTMLCanvasElement</tspan>
          <tspan font-family="Menlo" font-size="16" fill="black" x="0" y="90.46411" xml:space="preserve">HTMLImageElement</tspan>
          <tspan font-family="Menlo" font-size="16" fill="black" x="0" y="109.46411" xml:space="preserve">HTMLVideoElement</tspan>
          <tspan font-family="Helvetica Neue" font-size="16" fill="black" y="109.46411" xml:space="preserve">+</tspan>
          <tspan font-family="Menlo" font-size="16" fill="black" x="0" y="128.46411" xml:space="preserve">ImageBitmap++</tspan>
          <tspan font-family="Menlo" font-size="16" fill="black" x="0" y="147.46411" xml:space="preserve">OffscreenCanvas</tspan>
          <tspan font-family="Menlo" font-size="16" fill="black" x="0" y="166.46411" xml:space="preserve">VideoFrame</tspan>
          <tspan font-family="Helvetica Neue" font-size="16" fill="black" y="166.46411" xml:space="preserve">+</tspan>
          <tspan font-family="Menlo" font-size="16" fill="black" x="0" y="185.46411" xml:space="preserve">SVGImageElement</tspan>
          <tspan font-family="Helvetica Neue" font-size="16" fill="black" y="185.46411" xml:space="preserve">**</tspan>
          <tspan font-family="Helvetica Neue" font-size="12" fill="black" x="20.956" y="212.4641" xml:space="preserve">+ Usable with importExternalTexture</tspan>
          <tspan font-family="Helvetica Neue" font-size="12" fill="black" x="22.204" y="240.8001" xml:space="preserve">++ Supports ISO 21496-1 gain map</tspan>
          <tspan font-family="Helvetica Neue" font-size="12" fill="black" x="12.67" y="269.1361" xml:space="preserve">* Not usable with WebGL and WebGPU</tspan>
        </text>
      </g>
      <g id="Line_307">
        <line x1="-544" y1="474.12903" x2="-524.8933" y2="474.7454" marker-end="url(#FilledArrow_Marker)" stroke="black" stroke-linecap="round" stroke-linejoin="round" stroke-width="2"/>
      </g>
      <g id="Line_308">
        <line x1="-544" y1="525.74194" x2="-523.8272" y2="534.5269" marker-end="url(#FilledArrow_Marker)" stroke="black" stroke-linecap="round" stroke-linejoin="round" stroke-width="2"/>
      </g>
      <g id="Line_309">
        <path d="M -544 588.4669 C -533.1432 598.0103 -522.35984 607.3111 -512 616 C -506.92184 620.2591 -502.11804 624.2264 -497.57546 627.9219" marker-end="url(#FilledArrow_Marker)" stroke="black" stroke-linecap="round" stroke-linejoin="round" stroke-width="2"/>
      </g>
      <g id="Line_310">
        <line x1="-336" y1="578" x2="-288.9" y2="578" marker-end="url(#FilledArrow_Marker)" stroke="black" stroke-linecap="round" stroke-linejoin="round" stroke-width="2"/>
      </g>
      <g id="Line_311">
        <line x1="-336" y1="478" x2="-288.9" y2="478" marker-end="url(#FilledArrow_Marker)" stroke="black" stroke-linecap="round" stroke-linejoin="round" stroke-width="2"/>
      </g>
      <g id="Line_312">
        <line x1="-192" y1="478" x2="-176.9" y2="478" marker-end="url(#FilledArrow_Marker)" stroke="black" stroke-linecap="round" stroke-linejoin="round" stroke-width="2"/>
      </g>
      <g id="Line_313">
        <line x1="-192" y1="578" x2="-178.9" y2="578" marker-end="url(#FilledArrow_Marker)" stroke="black" stroke-linecap="round" stroke-linejoin="round" stroke-width="2"/>
      </g>
      <g id="Line_314">
        <path d="M -336 680.903 C -306.0411 679.2931 -272.02546 674.67515 -240 664 C -210.8949 654.2983 -188.1204 641.156 -170.75386 628.0673" marker-end="url(#FilledArrow_Marker)" stroke="black" stroke-linecap="round" stroke-linejoin="round" stroke-width="2"/>
      </g>
      <g id="Line_315">
        <path d="M -544 416.799 C -537.35314 414.29116 -530.7149 411.84015 -524.1596 409.48524" marker-end="url(#FilledArrow_Marker)" stroke="black" stroke-linecap="round" stroke-linejoin="round" stroke-width="2"/>
      </g>
      <g id="Line_316">
        <path d="M -336 370.7056 C -285.25983 366.8941 -219.84818 366.5131 -160 380 C -109.88666 391.29315 -73.45904 410.1046 -47.99204 428.24355" marker-end="url(#FilledArrow_Marker)" stroke="black" stroke-linecap="round" stroke-linejoin="round" stroke-width="2"/>
      </g>
      <g id="Line_317">
        <line x1="-80" y1="478" x2="-64.9" y2="478" marker-end="url(#FilledArrow_Marker)" stroke="black" stroke-linecap="round" stroke-linejoin="round" stroke-width="2"/>
      </g>
      <g id="Line_318">
        <path d="M -82 563.1884 C -72.531 558.3898 -62.24052 552.1274 -52 544 C -46.11249 539.3274 -40.698115 534.4007 -35.76096 529.4309" marker-end="url(#FilledArrow_Marker)" stroke="black" stroke-linecap="round" stroke-linejoin="round" stroke-width="2"/>
      </g>
      <g id="Graphic_319">
        <rect x="136" y="436" width="84" height="84" fill="white"/>
        <rect x="136" y="436" width="84" height="84" stroke="gray" stroke-linecap="round" stroke-linejoin="round" stroke-width="1"/>
        <text transform="translate(141 468.776)" fill="black">
          <tspan font-family="Helvetica Neue" font-size="16" fill="black" x="11.96" y="15" xml:space="preserve">Screen</tspan>
        </text>
      </g>
      <g id="Line_320">
        <path d="M -5.859828 520 C -19.015812 563.4296 -54.16202 631.05844 -148 676 C -295.8852 746.82625 -371.5482 786.3608 -520 728 C -557.4316 713.2845 -585.6505 689.5869 -606.9228 662.37234" marker-end="url(#FilledArrow_Marker)" stroke="black" stroke-linecap="round" stroke-linejoin="round" stroke-width="2"/>
      </g>
      <g id="Graphic_321">
        <rect x="-340" y="768" width="184" height="72" fill="white"/>
        <rect x="-340" y="768" width="184" height="72" stroke="gray" stroke-linecap="round" stroke-linejoin="round" stroke-width="1"/>
        <text transform="translate(-335 775.776)" fill="black">
          <tspan font-family="Menlo" font-size="16" fill="black" x="5.121094" y="15" xml:space="preserve">createImageBitmap</tspan>
          <tspan font-family="Menlo" font-size="16" fill="black" x="22.539937" y="34" xml:space="preserve">VideoFrame</tspan>
          <tspan font-family="Helvetica Neue" font-size="16" fill="black" y="34" xml:space="preserve"> ctor</tspan>
          <tspan font-family="Helvetica Neue" font-size="16" fill="black" x="23.28" y="53" xml:space="preserve">Blob then decode</tspan>
        </text>
      </g>
      <g id="Line_324">
        <line x1="56" y1="478" x2="123.1" y2="478" marker-end="url(#FilledArrow_Marker)" stroke="black" stroke-linecap="round" stroke-linejoin="round" stroke-width="2"/>
      </g>
      <g id="Line_325">
        <path d="M -340 817.0429 C -403.12745 819.8967 -486.9209 811.2652 -552 760 C -585.5161 733.59816 -609.67115 699.3526 -627.0797 663.6958" marker-end="url(#FilledArrow_Marker)" stroke="black" stroke-linecap="round" stroke-linejoin="round" stroke-width="2"/>
      </g>
      <g id="Line_326">
        <path d="M 7.871115 520 C 6.78667 548.07134 -3.1757114 588.5029 -39.599853 636 C -77.45044 685.3572 -134.36409 729.9406 -179.15555 760.7562" marker-end="url(#FilledArrow_Marker)" stroke="black" stroke-linecap="round" stroke-linejoin="round" stroke-width="2"/>
      </g>
      <g id="Graphic_335">
        <path d="M -192.0692 353.39067 L -187.52234 367.70156 L -172.8084 367.70156 L -184.71223 376.54617 L -180.16537 390.85707 L -192.0692 382.01245 L -203.97303 390.85707 L -199.42617 376.54617 L -211.33 367.70156 L -196.61606 367.70156 Z" fill="#ff4040"/>
        <text transform="translate(-196.46146 364.8776)" fill="white">
          <tspan font-family="Helvetica Neue" font-size="16" fill="white" x="0" y="15" xml:space="preserve">1</tspan>
        </text>
      </g>
      <g id="Graphic_336">
        <path d="M 76.274 472.88356 L 85.71905 472.88356 L 85.71905 462.64454 L 95.15844 462.64454 L 95.15844 472.88356 L 104.6035 472.88356 L 104.6035 483.11644 L 95.15844 483.11644 L 95.15844 493.35546 L 85.71905 493.35546 L 85.71905 483.11644 L 76.274 483.11644 Z" fill="#8080ff"/>
        <text transform="translate(81.274 468.76065)" fill="white">
          <tspan font-family="Helvetica Neue" font-size="16" fill="white" x="4.7167463" y="15" xml:space="preserve">5</tspan>
        </text>
      </g>
      <g id="Graphic_337">
        <rect x="-512" y="260" width="260" height="68" fill="white"/>
        <rect x="-512" y="260" width="260" height="68" stroke="gray" stroke-linecap="round" stroke-linejoin="round" stroke-width="1"/>
        <text transform="translate(-507 275.552)" fill="black">
          <tspan font-family="Helvetica Neue" font-size="16" fill="black" x="35.936" y="15" xml:space="preserve">HTML element (including </tspan>
          <tspan font-family="Helvetica Neue" font-size="16" fill="black" x="10.168" y="33.448" xml:space="preserve">ImageBitmapRenderingContext)</tspan>
        </text>
      </g>
      <g id="Line_339">
        <path d="M -252 288.34083 C -200.9122 290.8456 -139.3573 299.1826 -76 320 C 13.308531 349.34423 82.55775 395.71904 126.03093 430.6518" marker-end="url(#FilledArrow_Marker)" stroke="black" stroke-linecap="round" stroke-linejoin="round" stroke-width="2"/>
      </g>
      <g id="Graphic_340">
        <path d="M -60.02721 325.6905 L -50.582157 325.6905 L -50.582157 315.45147 L -41.14277 315.45147 L -41.14277 325.6905 L -31.697717 325.6905 L -31.697717 335.92337 L -41.14277 335.92337 L -41.14277 346.1624 L -50.582157 346.1624 L -50.582157 335.92337 L -60.02721 335.92337 Z" fill="#8080ff"/>
        <text transform="translate(-55.02721 321.56758)" fill="white">
          <tspan font-family="Helvetica Neue" font-size="16" fill="white" x="4.7167463" y="15" xml:space="preserve">0</tspan>
        </text>
      </g>
      <g id="Line_341">
        <path d="M -544 329.62143 C -537.255 325.6923 -530.508 322.1708 -523.8063 319.0163" marker-end="url(#FilledArrow_Marker)" stroke="black" stroke-linecap="round" stroke-linejoin="round" stroke-width="2"/>
      </g>
      <g id="Graphic_343">
        <path d="M -87.496 719.5281 L -78.050945 719.5281 L -78.050945 709.2891 L -68.61156 709.2891 L -68.61156 719.5281 L -59.166505 719.5281 L -59.166505 729.761 L -68.61156 729.761 L -68.61156 740 L -78.050945 740 L -78.050945 729.761 L -87.496 729.761 Z" fill="#8080ff"/>
      </g>
      <g id="Graphic_344">
        <text transform="translate(-38.999997 705)" fill="black">
          <tspan font-family="Helvetica Neue" font-size="16" fill="black" x="0" y="15" xml:space="preserve">Tone map to screen’s HDR headroom,</tspan>
          <tspan font-family="Helvetica Neue" font-size="16" fill="black" x="0" y="33.448" xml:space="preserve">adjusted by CSS </tspan>
          <tspan font-family="Menlo" font-size="16" fill="black" y="33.448" xml:space="preserve">dynamic-range-limit</tspan>
        </text>
      </g>
      <g id="Graphic_345">
        <path d="M -71.748 758.5782 L -67.20114 772.8891 L -52.4872 772.8891 L -64.39103 781.7337 L -59.84417 796.0446 L -71.748 787.19995 L -83.65183 796.0446 L -79.10497 781.7337 L -91.0088 772.8891 L -76.29486 772.8891 Z" fill="#ff4040"/>
      </g>
      <g id="Graphic_346">
        <text transform="translate(-39 769)" fill="black">
          <tspan font-family="Helvetica Neue" font-size="16" fill="black" x="0" y="15" xml:space="preserve">Tone map to specified HDR headroom</tspan>
        </text>
      </g>
      <g id="Graphic_347">
        <path d="M -559.91826 633.5963 L -558.8989 652.6523 L -572 647.2891 L -554.6465 668 L -555.4668 649.8782 L -541.90054 663.3421 L -542.6938 641.0328 L -531.496 647.2891 L -547.0814 626.5775 L -546.352 647.8066 L -559.91814 633.5963 Z" fill="#ff40ff"/>
        <text transform="translate(-567 638.0651)" fill="black">
          <tspan font-family="Helvetica Neue" font-size="16" fill="black" x="10.804001" y="15" xml:space="preserve">6</tspan>
        </text>
      </g>
      <g id="Graphic_348">
        <text transform="translate(-39 809)" fill="black">
          <tspan font-family="Helvetica Neue" font-size="16" fill="black" x="0" y="15" xml:space="preserve">Has HDR metadata</tspan>
          <tspan font-family="Helvetica Neue" font-size="16" fill="black" x="0" y="33.448" xml:space="preserve">• SMPTE ST 2094-50 gain curve</tspan>
          <tspan font-family="Helvetica Neue" font-size="16" fill="black" x="0" y="51.895996" xml:space="preserve">• ISO 21496-1 gain map</tspan>
        </text>
      </g>
      <g id="Graphic_350">
        <path d="M 41.12454 501.5963 L 42.23189 520.6523 L 28 515.2891 L 46.85131 536 L 45.960224 517.87816 L 60.69741 531.3421 L 59.835716 509.0328 L 72 515.2891 L 55.06937 494.5775 L 55.86177 515.8066 L 41.12467 501.5963 Z" fill="#ff40ff"/>
        <text transform="translate(33 506.0651)" fill="black">
          <tspan font-family="Helvetica Neue" font-size="16" fill="black" x="12.552" y="15" xml:space="preserve">5</tspan>
        </text>
      </g>
      <g id="Graphic_351">
        <path d="M -79.91826 821.5963 L -78.8989 840.6523 L -92 835.2891 L -74.64651 856 L -75.4668 837.8782 L -61.900544 851.3421 L -62.693775 829.0328 L -51.496 835.2891 L -67.08141 814.5775 L -66.351975 835.8066 L -79.91814 821.5963 Z" fill="#ff40ff"/>
      </g>
      <g id="Graphic_352">
        <path d="M -309.63275 457.2891 L -305.0859 471.6 L -290.37195 471.6 L -302.2758 480.4446 L -297.72892 494.7555 L -309.63275 485.91087 L -321.53658 494.7555 L -316.98972 480.4446 L -328.89355 471.6 L -314.1796 471.6 Z" fill="#ff4040"/>
        <text transform="translate(-314.025 468.776)" fill="white">
          <tspan font-family="Helvetica Neue" font-size="16" fill="white" x="0" y="15" xml:space="preserve">2</tspan>
        </text>
      </g>
      <g id="Graphic_353">
        <path d="M -311.748 557.2891 L -307.20114 571.6 L -292.4872 571.6 L -304.39103 580.4446 L -299.84417 594.7555 L -311.748 585.9109 L -323.65183 594.7555 L -319.10497 580.4446 L -331.0088 571.6 L -316.29486 571.6 Z" fill="#ff4040"/>
        <text transform="translate(-316.14026 568.776)" fill="white">
          <tspan font-family="Helvetica Neue" font-size="16" fill="white" x="0" y="15" xml:space="preserve">3</tspan>
        </text>
      </g>
      <g id="Graphic_354">
        <path d="M -251.85405 646.9469 L -247.3072 661.2578 L -232.59325 661.2578 L -244.49708 670.1024 L -239.95022 684.4133 L -251.85405 675.5687 L -263.75788 684.4133 L -259.21102 670.1024 L -271.11485 661.2578 L -256.4009 661.2578 Z" fill="#ff4040"/>
        <text transform="translate(-256.2463 658.4338)" fill="white">
          <tspan font-family="Helvetica Neue" font-size="16" fill="white" x="0" y="15" xml:space="preserve">4</tspan>
        </text>
      </g>
      <g id="Line_356">
        <path d="M 178.32943 520 C 175.77836 531.9675 170.42227 544.79115 160 556 C 129.96967 588.2968 109.96287 565.3693 72 592 C 62.03239 598.9922 54.12782 606.3111 47.8901 613.3031" marker-end="url(#FilledArrow_Marker)" stroke="black" stroke-linecap="round" stroke-linejoin="round" stroke-width="2"/>
      </g>
      <g id="Graphic_357">
        <path d="M 26 620 C 9.4472 620 -4 633.4178 -4 650 C -4 666.5822 9.4472 680 26 680 C 42.5822 680 56 666.5822 56 650 C 56 633.4178 42.5822 620 26 620 M 42.3476 633.6524 C 50.5508 641.8556 51.1952 654.629 44.5154 663.7112 L 12.3182 631.4846 C 21.371 624.8048 34.1444 625.508 42.3476 633.6524 M 9.6524 666.3476 C 1.4786 658.1444 .8048 645.371 7.4846 636.2888 L 39.6818 668.5154 C 30.629 675.1952 17.8556 674.5508 9.6524 666.3476 Z" fill="red"/>
      </g>
      <g id="Graphic_358">
        <text transform="translate(65 622.328)" fill="black">
          <tspan font-family="Helvetica Neue" font-size="16" fill="black" x="0" y="15" xml:space="preserve">Rendered pixels, and screen </tspan>
          <tspan font-family="Helvetica Neue" font-size="16" fill="black" x="0" y="33.448" xml:space="preserve">HDR headroom used to </tspan>
          <tspan font-family="Helvetica Neue" font-size="16" fill="black" x="0" y="51.895996" xml:space="preserve">render them, are unavailable</tspan>
        </text>
      </g>
    </g>
  </g>
</svg>
